# xmcd CD database file generated by Grip 2.95
# 
# Track frame offsets:
#       150
#       12938
#       26898
#       41213
#       56235
#       68315
#       83240
#       97295
#       111280
#       123605
#       136825
#       152098
#       166245
#       179323
# 
# Disc length: 2570 seconds
# 
# Revision: 3
# Processed by: cddbd v1.4b41PL1 Copyright (c) Steve Scherf et al.
# Submitted via: Grip 2.95
# 
DISCID=c00a080e
DTITLE=Frank Stokes - Creator of the Memphis Blues
DYEAR=1900
DGENRE=
TTITLE0=Memphis Rounders Blues
TTITLE1=Unnamed Blues
TTITLE2=Nehi Mama Blues
TTITLE3='Taint Nobody's Business if I Do Part 2
TTITLE4=Mr. Crump Don't Like It
TTITLE5=Mistreatin' Blues
TTITLE6=It Won't Be Long Now
TTITLE7=Chicken You Can Roost Behind the Moon
TTITLE8=You Shall
TTITLE9=Sweet to Mama
TTITLE10=Stomp that Thing
TTITLE11=Wasn't That Doggin' Me
TTITLE12=Beale Town Bound
TTITLE13=It's a Good Thing
EXTD=
EXTT0=
EXTT1=
EXTT2=
EXTT3=
EXTT4=
EXTT5=
EXTT6=
EXTT7=
EXTT8=
EXTT9=
EXTT10=
EXTT11=
EXTT12=
EXTT13=
PLAYORDER=
